<svg id="Camada_1" data-name="Camada 1" xmlns="http://www.w3.org/2000/svg" viewBox="0 0 512 512"><path id="eletrical" d="M512,267.26c-.16,9.74,0,19.49-.05,29.23a40.28,40.28,0,0,1-28,38.07,3.32,3.32,0,0,0-2.59,2.94c-3,16.54-11.44,29.79-24.61,40.06a60.63,60.63,0,0,1-21.39,10.73,63.85,63.85,0,0,1-30.69,1.08,64.53,64.53,0,0,1-32.71-17.66,62.15,62.15,0,0,1-16.37-27.51c-.2-.68-.54-1.32-.72-2-.45-1.71-.33-4.39-1.37-4.95-1.8-1-4.29-.7-6.5-.76-3.3-.1-6.61,0-9.91,0q-79.24,0-158.47.05c-4.89,0-9.81-.38-14.7.41-1.44.23-2.35.58-2.73,2.3-3.89,17.88-13.67,31.68-29,41.63a61.07,61.07,0,0,1-18.61,7.95,65.25,65.25,0,0,1-79.41-50.94,3.84,3.84,0,0,0-3-3.29c-15.42-5.06-25.32-15.35-29.71-31a34.59,34.59,0,0,1-1.43-9.2Q0,272.63,0,250.91c0-6.67,4.6-11.25,11-11.2a10.21,10.21,0,0,1,10.2,10.19c0,13.77-.25,27.54.08,41.29.33,13.18,7.94,22.7,22.48,23.66,6.42.42,10.52,4.6,10.63,11,.31,19.17,12.32,35.64,30.54,41,21.92,6.44,43-3.29,52.41-23.44,2.75-5.9,3.39-12.16,4.08-18.4.63-5.7,3.79-9.46,9.46-10.11a21.83,21.83,0,0,1,2.68-.1H362c6.77,0,9.88,2.26,12.15,8.63a10.87,10.87,0,0,1,.42,3.43c.48,17.38,8.92,30.21,24.11,37.57,21.68,10.5,46.49,2.65,58.08-19.86a34.57,34.57,0,0,0,4.08-17.53c-.25-5.62,4.28-12.29,11.62-12.4A17.88,17.88,0,0,0,490,299.89a42.32,42.32,0,0,0,.75-7.67c0-8.49.09-17-.05-25.47a22.81,22.81,0,0,0-2.28-9.52,17.64,17.64,0,0,0-11.49-9.34c-6.67-1.94-13.44-3.53-20.15-5.32-6.55-1.74-13.07-3.57-19.61-5.31-9.56-2.54-19.13-5-28.69-7.56-6.54-1.75-13.05-3.58-19.57-5.39-4.11-1.16-8.32-1.95-12.35-3.41-7.72-2.78-13.62-8-19-13.94-7-7.84-14.09-15.63-21.11-23.46-5.17-5.78-10.08-11.81-15.7-17.15A83.25,83.25,0,0,0,290,147.58a91.79,91.79,0,0,0-30.21-4.7c-42.9.08-85.8,0-128.7,0a83,83,0,0,0-51.25,17.21c-6.75,5.1-12.32,11.3-17.61,17.81-7,8.65-14.11,17.24-21.15,25.87-1.8,2.21-2.64,4.53-1.08,7.33a6.68,6.68,0,0,0,6.4,3.57q45.43,0,90.89,0a2.6,2.6,0,0,0,3-2.23c4.25-14.65,13.66-24.95,27.15-31.74,1.52-.76,3.55-.37,4.57-2.41.28-.57,1.65.53,2.65.21,9.09-2.88,18.46-1.15,27.7-1.57,2.94-.14,5.9-.05,8.84,0a10.8,10.8,0,0,1,10.58,10.32,25.68,25.68,0,0,1,0,4c-.35,2.8.89,3.47,3.52,3.42,8.13-.15,16.26-.08,24.4,0a10.79,10.79,0,0,1,5.81,20,15.57,15.57,0,0,1-8.23,2c-7.69,0-15.37.07-23.06,0-1.91,0-2.49.56-2.45,2.43.11,4.19.15,8.4,0,12.59-.08,2.41.64,3.31,3.17,3.26,8.13-.13,16.27,0,24.41,0a10.44,10.44,0,0,1,8.75,4,13.57,13.57,0,0,1,1.47,2.41c.12.27.25.51.38.74a10.76,10.76,0,0,1,.72,3.9,11,11,0,0,1-11,11H226.23l-2,0a5.54,5.54,0,0,0-1,0c-1.14.17-1.53.81-1.55,2.35,0,2.63.36,5.26-.69,7.91a10.94,10.94,0,0,1-10.46,7.42c-8.57.28-17.2.66-25.72-.07-19.84-1.68-34.23-11.68-42.6-29.92a25.84,25.84,0,0,1-1.88-5.56c-.41-2-1.41-2.56-3.32-2.54-8.85.07-17.72-.34-26.54.21-3.55.22-6.94-.64-10.47-.27-3.8.42-7.68.09-11.52.08H77c-3.85,0-7.69,0-11.53,0-7.24-.1-14.48.29-21.71-.27-11.44-.89-19.28-7-23.76-17.23-4.37-10-2.91-19.75,3.81-28.21,9.44-11.86,18.94-23.69,29-35.06a102.14,102.14,0,0,1,34.72-25.39,99.36,99.36,0,0,1,25.24-7.72,101.13,101.13,0,0,1,16.78-1.48c22.43.1,44.87,0,67.3,0v0c23.24,0,46.48-.17,69.72.06,15.5.16,30.08,4.37,43.9,11.36s25.3,17.15,35.45,28.86c8.71,10.05,17.94,19.64,26.55,29.77a33.09,33.09,0,0,0,19.08,11.32c7.13,1.54,14.14,3.63,21.2,5.49q14.35,3.76,28.69,7.57c8.43,2.24,16.85,4.56,25.28,6.83,5.59,1.5,11.28,2.73,16.78,4.5a39.85,39.85,0,0,1,23.44,19.16A41.12,41.12,0,0,1,512,267.26Z"/></svg>