<svg id="Camada_1" data-name="Camada 1" xmlns="http://www.w3.org/2000/svg" viewBox="0 0 512 512"><defs><style>.cls-1{fill:none;stroke:#000;stroke-miterlimit:10;stroke-width:22px;}</style></defs><g id="freio"><path d="M393,268.47c-.93,85.27-66.69,148.25-146.85,149.5-88.46,1.37-150.55-64.56-152.63-141.92C91.13,186.33,161.91,120.92,240,119.52,325.62,118,393,185.31,393,268.47Zm-147.89-48c-25.37-1.81-49.9,20.45-51,47.76-1.17,27.55,18.34,47.17,46.19,49.13,26.24,1.84,49.94-18.52,52-44.72C294.59,244.51,274.72,222.55,245.14,220.43Zm22.08-63.13c-8.89.14-15.34,7.41-15,16.95.22,7.12,8.15,13.95,16,13.79a15.78,15.78,0,0,0,15.07-16.27C283,163.58,275.83,157.17,267.22,157.3ZM325,292.62c.05,9,6.48,15.57,14.92,15.33A16.07,16.07,0,0,0,355.66,292c.15-7.88-7.31-15.27-15.37-15.23C331.27,276.83,324.9,283.41,325,292.62Zm-163.6-46.91c-.58-9.4-7.36-15.94-15.81-15.22-9.22.78-15.57,7.75-15,16.42.56,8.06,7.81,15,15.28,14.59C155,261,161.86,254,161.35,245.71Zm57.59,105a15.24,15.24,0,0,0-16.09,14.2c-.55,8.59,6.75,16.2,15.83,16.49,7.24.23,14.9-7.12,15.26-14.66C234.38,357.7,228.16,351.05,218.94,350.66Zm-61.18-14.54c8,0,15-6.55,15.16-14.35.21-8.83-6.62-16.25-15-16.3-8.57-.05-16,6.59-16.15,14.38A15.87,15.87,0,0,0,157.76,336.12ZM208,183.57a15.51,15.51,0,0,0-15.29-15.45c-7.94-.12-15.77,8.13-15.48,16.32A14.64,14.64,0,0,0,192.34,199C201.9,199,208.14,192.84,208,183.57Zm88.51,154c-9.55.1-16.62,6.7-16.68,15.58-.06,8.2,7.07,15.87,14.78,15.9a15.84,15.84,0,0,0,15.84-16.28C310.31,345.59,302.9,337.51,296.52,337.58Zm47.31-121c-.12-8.79-7.2-15.16-16.45-14.8-7.05.28-14.32,8.43-14.23,16,.09,8.16,7.5,15.36,15.69,15.25C337.51,232.91,344,225.86,343.83,216.62Z"/><path d="M227.09,268.92c0-10.34,7-17.34,17.44-17.34,9.81,0,16.79,7.6,16.7,18.18-.07,8.05-8.24,15.8-16.82,15.94A16.92,16.92,0,0,1,227.09,268.92Z"/><path d="M243.26,512C109.13,512,0,402.87,0,268.74S109.13,25.48,243.26,25.48,486.52,134.61,486.52,268.74,377.39,512,243.26,512Zm0-456.21c-117.43,0-213,95.53-213,213s95.53,213,213,213,213-95.53,213-213S360.68,55.79,243.26,55.79Z"/><path d="M512,268.74H430.73c0-49.67-19.61-96.63-55.22-132.25S292.93,81.27,243.26,81.27h-2.52L239.66,0l3.6,0C314.63,0,382,28.07,433,79S512,197.37,512,268.74Z"/><circle class="cls-1" cx="243.26" cy="268.74" r="228.11"/></g></svg>