<svg id="Camada_1" data-name="Camada 1" xmlns="http://www.w3.org/2000/svg" viewBox="0 0 512 512"><g id="suspensao"><path d="M161.15,270.4V509.73c0,5.22,0,5.22-5.29,5.22-6.81,0-13.62,0-20.42,0-4.3,0-4.5-.21-4.51-4.5q0-40.05,0-80.09,0-199.12,0-398.25c0-6.16,0-6.17,6-6.17,6.7,0,13.4.14,20.1-.05,3.24-.1,4.15,1.06,4.14,4.25q-.12,79-.05,158Q161.16,229.25,161.15,270.4Z"/><path d="M200.92,270.11q0-119.52,0-239c0-5.15,0-5.19,5-5.15,6.59,0,13.18-.29,19.76.52,5.26.66,5.49.86,5.49,6V508.63c0,4.81,0,4.94-4.81,5.6-7.51,1-15.07.69-22.62.68-2.51,0-2.88-1.45-2.87-3.54,0-13,0-26,0-38.93Z"/><path d="M93.84,270.56V507.7c0,1,0,1.92,0,2.87,0,4.13-.24,4.34-4.33,4.36-5.85,0-11.7-.12-17.55.06-3.14.09-4.36-1-4.29-4.2.17-7.87,0-15.74,0-23.62q0-227.4,0-454.81c0-6.43,0-6.44,6.41-6.44,5.32,0,10.64.1,16,0,2.72-.07,3.86.93,3.79,3.7-.13,4.68,0,9.36,0,14V270.56Z"/><path d="M390.94,252.37c26.38,0,52.77.28,79.14-.13,11.44-.17,21.1,7.6,22.79,18.53,1.64,10.7-5.78,22.57-16.42,25.92a29.3,29.3,0,0,1-8.79,1.37q-79,0-158,0c-4.62,0-4.63,0-4.64-4.6q0-18.19,0-36.38c0-4.66,0-4.69,4.83-4.69Z"/><path d="M300.92,279.71q0,38.28,0,76.56c0,4.43,0,4.44-4.37,4.45-7.12,0-14.25-.09-21.37,0-2.64.05-3.48-.89-3.48-3.5q.09-77.52,0-155c0-2.74,1.11-3.46,3.61-3.42,7.23.09,14.47.15,21.69,0,3.1-.07,4,1,4,4.06C300.88,228.46,300.92,254.08,300.92,279.71Z"/><path d="M63.89,222.26q0,15.31,0,30.63c0,1,.42,2.4-.64,3s-1.81-.78-2.49-1.47q-20-20.35-40-40.76A5.68,5.68,0,0,1,19,209.36q0-31.11,0-62.23c0-.79-.38-1.88.59-2.28s1.46.66,2,1.22q20.2,20.18,40.42,40.36a6.62,6.62,0,0,1,1.84,5.19Q63.87,206.94,63.89,222.26Z"/><path d="M348.44,144.49c.61-5.92,3.75-9.82,9.15-12q17.71-7.26,35.39-14.59,29-12,58.08-24a14.48,14.48,0,0,1,4.58-1.31,6.1,6.1,0,0,1,6.68,4.73,80.49,80.49,0,0,1,1.8,9.71c.55,4.89-3.09,10-8.54,12.25Q432.3,128.92,409,138.51q-23.73,9.81-47.47,19.61c-6.86,2.84-10.54.86-11.83-6.44C349.27,149.27,348.86,146.86,348.44,144.49Z"/><path d="M354,216.42c-4,0-6.12-1.53-7-5.16a79.17,79.17,0,0,1-1.64-8.77c-.63-5.15,2.93-10.29,8.77-12.72q18.39-7.68,36.84-15.25,28.45-11.73,56.92-23.45a17.28,17.28,0,0,1,4.57-1.31,6,6,0,0,1,6.54,4.49,62.59,62.59,0,0,1,1.9,10.33c.41,4.9-3.37,9.74-8.91,12q-25.35,10.48-50.71,20.94-21.53,8.88-43.05,17.77A9.83,9.83,0,0,1,354,216.42Z"/><path d="M349,90.67c0-6.39,3.13-10.79,8.64-13.07Q383.31,67,409,56.43q21.38-8.84,42.74-17.66c6.81-2.81,10.18-1,11.65,6.26.25,1.25.44,2.51.68,3.77,1.41,7.46-1.26,12.59-8.34,15.57-10.68,4.49-21.42,8.86-32.13,13.28q-30.66,12.64-61.34,25.28a19.87,19.87,0,0,1-4.25,1.3,6.1,6.1,0,0,1-7.15-4.44C349.94,96.42,349.47,92.93,349,90.67Z"/><path d="M19,106.46c0-9.56,0-19.13,0-28.69,0-1.11-.39-2.67.87-3.15,1.08-.4,1.72,1,2.43,1.73q19.77,20.12,39.53,40.26a6.39,6.39,0,0,1,2,4.8q0,28.53,0,57.06c0,.9.39,2.15-.72,2.56-.9.34-1.4-.76-2-1.33-13.11-13-26.17-26.13-39.33-39.12A9.23,9.23,0,0,1,19,133.24c.17-8.92.06-17.85.06-26.78Z"/><path d="M63.89,359.19c0,9.25,0,18.49,0,27.74,0,1,.44,2.4-.63,2.94s-1.81-.81-2.5-1.49C48,375.6,35.26,362.76,22.43,350a11.13,11.13,0,0,1-3.5-8.72c.16-17.75.07-35.5.1-53.24,0-1-.55-2.39.71-2.82,1-.35,1.58.88,2.22,1.53q19.86,19.82,39.72,39.64a7.27,7.27,0,0,1,2.24,5.67C63.85,341.12,63.89,350.16,63.89,359.19Z"/><path d="M63.89,429.25c0,9.57,0,19.13,0,28.7,0,.9.43,2.19-.64,2.58s-1.57-.89-2.15-1.56q-20.28-23.34-40.54-46.71A6.14,6.14,0,0,1,19,407.91q0-25.67,0-51.33c0-.92-.39-2.18.57-2.63,1.2-.57,1.84.73,2.54,1.43q19.89,20,39.76,40.05a7,7,0,0,1,2,5.44C63.87,410.33,63.89,419.79,63.89,429.25Z"/><path d="M63.89,292.44q0,12.92,0,25.83c0,1,.35,2.41-.79,2.87-1,.39-1.61-.81-2.26-1.46q-20-19.94-39.94-39.88A6.21,6.21,0,0,1,19,275c0-17.54,0-35.08.06-52.62,0-1.08-.62-2.68.72-3.13s1.9,1.11,2.68,1.9c13,13.29,26,26.63,39,39.88a8.08,8.08,0,0,1,2.45,6.25C63.83,275.64,63.89,284,63.89,292.44Z"/><path d="M19,442.35c0-7.12,0-14.25,0-21.37,0-.88-.46-2.15.74-2.49.9-.27,1.39.82,1.92,1.43Q42,443.28,62.26,466.63a6.69,6.69,0,0,1,1.64,4.67c0,13,0,25.94,0,38.91,0,3.49-.37,3.74-3.67,3C37.28,508,19.4,486,19,462.44,18.93,455.75,19,449.05,19,442.35Z"/><path d="M405.39,3h48.46c4.21,0,4.45.27,4.52,4.55,0,2.23.14,4.47,0,6.69-.39,6.44-3.71,9.6-10.14,9.82-8.28.29-16.56.2-24.85.53-13.8.55-27.61.62-41.42.92-7.08.15-14.17.06-21.21,1.17-2.42.38-6.83-3.76-7.61-7.21-1-4.7-.78-9.51-.72-14.29,0-2.11,1.71-2.15,3.23-2.16,5.42,0,10.84,0,16.26,0Z"/><path d="M165.29,389.17q0-16.57,0-33.15c0-.91-.38-2.16.63-2.62s1.56.83,2.12,1.48c8.9,10.29,17.73,20.62,26.64,30.9a8.24,8.24,0,0,1,2.16,5.75c-.07,21.57,0,43.14-.06,64.72,0,1,.53,2.44-.52,2.93s-1.72-.94-2.37-1.68c-8.83-9.92-17.58-19.91-26.46-29.78a8.27,8.27,0,0,1-2.2-6C165.33,410.85,165.29,400,165.29,389.17Z"/><path d="M63.89,69.56q0,19.14,0,38.26c0,1.13.48,2.71-.71,3.21s-1.93-1-2.7-1.8C47.71,96.28,35,83.28,22.25,70.35a4.29,4.29,0,0,1-1.2-4.84c6.09-19.33,18.79-31.92,38.25-37.6,4.3-1.26,4.58-1,4.59,3.39Q63.91,50.44,63.89,69.56Z"/><path d="M235.35,455v-15.9c0-15.62,0-31.25,0-46.88a7.33,7.33,0,0,1,2.27-5.63c9.17-9.33,18.23-18.75,27.34-28.12.56-.57,1-1.63,2-1.2s.65,1.49.65,2.29q0,30,0,60a4.45,4.45,0,0,1-1.11,3.22Q251.71,438.36,236.94,454A9.14,9.14,0,0,1,235.35,455Z"/><path d="M97.67,227.69c0-10.31,0-20.63,0-30.94a9.32,9.32,0,0,1,2.18-6.41c8.14-10,16.15-20,24.24-30,.62-.76,1.12-2.22,2.32-1.72s.7,1.89.7,2.91c0,21.15,0,42.31,0,63.47a8.27,8.27,0,0,1-2,5.51c-8.23,10.16-16.4,20.37-24.62,30.54-.57.71-1.09,2-2.06,1.71-1.25-.39-.75-1.83-.75-2.83Q97.65,243.81,97.67,227.69Z"/><path d="M267.6,177.45c0,9.56,0,19.13,0,28.69a7.35,7.35,0,0,1-2.27,5.66c-9.1,9.23-18.1,18.56-27.16,27.83-.63.64-1.19,1.86-2.24,1.45s-.6-1.68-.6-2.57c0-19.45,0-38.89,0-58.34a5.78,5.78,0,0,1,1.72-4.26q13.94-14.68,27.81-29.42c.55-.59,1.06-1.63,2-1.25s.72,1.66.72,2.56C267.61,157.69,267.6,167.57,267.6,177.45Z"/><path d="M267.6,248.75c0,9.78,0,19.56,0,29.35a6.45,6.45,0,0,1-2,5.1c-9.2,8.85-18.31,17.77-27.48,26.65-.64.61-1.21,1.84-2.29,1.29-.8-.41-.46-1.55-.46-2.37q0-28.87,0-57.74a5.69,5.69,0,0,1,1.72-4.27q13.94-14.25,27.83-28.55c.57-.57,1.08-1.65,2-1.34,1.15.39.72,1.64.72,2.53C267.61,229.18,267.6,239,267.6,248.75Z"/><path d="M196.82,349.29c0,9.47,0,18.93,0,28.4,0,.89.46,2.17-.62,2.57s-1.57-.87-2.15-1.54c-9.09-10.56-18.13-21.15-27.24-31.69a6.2,6.2,0,0,1-1.5-4.38q0-30.63,0-61.26c0-.91-.4-2.18.62-2.6s1.54.88,2.06,1.56c9.06,11.95,18.07,23.94,27.14,35.88a8.27,8.27,0,0,1,1.73,5.3C196.79,330.79,196.82,340,196.82,349.29Z"/><path d="M165.29,473.32q0-18.65,0-37.31c0-1-.48-2.4.76-2.82,1-.35,1.51.95,2.12,1.63q13.49,15.1,26.94,30.23a6,6,0,0,1,1.71,4.29c0,14-.07,28.06,0,42.09,0,2.69-1.09,3.54-3.59,3.52-8.08-.06-16.16-.1-24.24,0-3,0-3.81-1.22-3.79-4C165.35,498.41,165.29,485.86,165.29,473.32Z"/><path d="M235.35,349.67c0-9.36.05-18.72,0-28.08a7,7,0,0,1,2.3-5.62c9.16-8.73,18.23-17.56,27.35-26.33.57-.54,1.05-1.62,2-1.16s.59,1.5.59,2.3q0,28.25,0,56.48a6.08,6.08,0,0,1-1.91,4.53q-13.83,14.15-27.61,28.33c-.62.63-1.19,1.85-2.28,1.28-.79-.42-.46-1.55-.46-2.38Q235.33,364.35,235.35,349.67Z"/><path d="M127.09,341.64c0,10.64,0,21.28,0,31.92A6.33,6.33,0,0,1,124.6,379c-7.94,6.42-15.75,13-23.62,19.51-.72.6-1.47,1.65-2.41,1.29-1.19-.44-.88-1.81-.88-2.83q0-29.36,0-58.72a5.82,5.82,0,0,1,1.7-4.3c8.24-8.6,16.43-17.26,24.65-25.88.64-.67,1.28-1.87,2.24-1.53,1.18.42.81,1.83.82,2.84Q127.11,325.52,127.09,341.64Z"/><path d="M235.86,170.72a4.94,4.94,0,0,1-.5-3.12c0-18.94,0-37.87-.05-56.81a7.39,7.39,0,0,1,2.41-5.89c9-8.61,17.86-17.34,26.79-26,.64-.62,1.22-1.81,2.28-1.37s.81,1.64.81,2.57q0,27.61,0,55.21a4.74,4.74,0,0,1-1.23,3.5Q251.69,154.35,237,169.91A7.43,7.43,0,0,1,235.86,170.72Z"/><path d="M405.42,248.25H356.64c-4.24,0-4.32-.09-4.34-4.25,0-2-.07-4,0-6.05.25-5.56,3.14-8.38,8.64-8.42,12.54-.08,25.08-.06,37.62-.17,17.11-.15,34.21-.38,51.31-.57,5.54-.06,8.45,2.71,8.65,8.27.09,2.23,0,4.47,0,6.7,0,4.44,0,4.49-4.39,4.49Z"/><path d="M165.29,176.94c0-9.25,0-18.51,0-27.76,0-.89-.44-2.15.72-2.52.92-.3,1.38.82,1.91,1.43q13.73,16,27.43,31.94a5.93,5.93,0,0,1,1.47,4.07c0,18,0,36,0,53.93,0,.79.38,1.89-.58,2.29s-1.45-.67-2-1.26c-9.17-10.2-18.3-20.43-27.49-30.62a6.36,6.36,0,0,1-1.47-4.7Q165.31,190.35,165.29,176.94Z"/><path d="M196.82,278.76q0,14.36,0,28.72c0,.81.36,2-.49,2.33-1.2.5-1.52-.88-2-1.57-9.2-12.11-18.34-24.27-27.53-36.39a7,7,0,0,1-1.48-4.42c0-16.7,0-33.4,0-50.11,0-.91-.35-2.15.69-2.58s1.62.76,2.22,1.42c9,10,17.87,20,26.86,29.92a6.76,6.76,0,0,1,1.77,4.91C196.8,260.24,196.83,269.5,196.82,278.76Z"/><path d="M97.68,153.33c0-9.25,0-18.5,0-27.74a7.77,7.77,0,0,1,2-5.51c8.25-9.3,16.43-18.67,24.67-28,.58-.65,1-2,2.13-1.53s.62,1.7.63,2.6q0,27.1,0,54.21a7,7,0,0,1-1.66,4.66c-8.31,10.23-16.54,20.52-24.82,30.78-.58.72-1.11,2-2.09,1.69-1.24-.37-.84-1.8-.84-2.8C97.67,172.25,97.68,162.79,97.68,153.33Z"/><path d="M127.09,267.58c0,9.36,0,18.72,0,28.07a6.78,6.78,0,0,1-1.86,5.19c-8.11,8.42-16.12,16.94-24.22,25.38-.74.78-1.34,2.33-2.68,1.76-1.08-.46-.66-1.9-.66-2.92,0-17,0-34,0-51a7.92,7.92,0,0,1,1.84-5.26c8.18-10.06,16.28-20.19,24.46-30.26.66-.81,1.08-2.5,2.49-1.92,1.06.44.63,1.91.63,2.93Q127.13,253.55,127.09,267.58Z"/><path d="M97.67,435.53c0-8.51.06-17,0-25.53a6.3,6.3,0,0,1,2.5-5.47c8-6.49,15.91-13.14,23.87-19.71.69-.56,1.35-1.63,2.42-1,.82.47.64,1.52.64,2.35,0,17.55,0,35.1,0,52.66a5.12,5.12,0,0,1-2.18,4c-7.91,6.79-15.79,13.62-23.72,20.38-.82.69-1.61,2.11-2.88,1.44-1-.55-.63-1.93-.64-3Q97.65,448.62,97.67,435.53Z"/><path d="M196.82,91.81c0,8.4,0,16.81,0,25.21,0,.9.46,2.26-.52,2.61-1.29.47-1.62-1.08-2.17-1.87C185,104.9,176,92,167,79.13a8.31,8.31,0,0,1-1.69-5c0-14.89,0-29.78,0-44.67,0-1-.43-2.43.85-2.78,1-.28,1.53,1,2.1,1.7q13.55,16.76,27.06,33.52a7,7,0,0,1,1.52,4.71C196.8,75,196.82,83.41,196.82,91.81Z"/><path d="M127.1,481.15c0,9.89-.08,19.77,0,29.65,0,2.94-.83,4.25-4,4.18-7.22-.15-14.45-.13-21.67,0-2.92,0-3.89-1.09-3.86-3.94.1-12,.07-24,0-36a6.48,6.48,0,0,1,2.51-5.49c7.81-6.56,15.48-13.29,23.24-19.9.89-.77,1.71-2.43,3.06-1.68,1.19.67.62,2.34.62,3.57C127.12,461.39,127.1,471.27,127.1,481.15Z"/><path d="M235.35,485.38c0-6.91,0-13.83,0-20.74a5.7,5.7,0,0,1,1.43-4.38q14-14.82,28-29.71c.56-.6,1.1-1.58,2-1.3s.79,1.41.77,2.22c-.24,12,1,24.08-.59,36-2.38,18.48-12.24,32.07-28.49,41-2.77,1.52-3.13,1.23-3.14-2.09C235.33,499.42,235.35,492.4,235.35,485.38Z"/><path d="M97.68,87.22c0-7.44.08-14.88-.05-22.32a9.45,9.45,0,0,1,2.65-7.16c8-8.65,15.88-17.46,23.84-26.17.65-.71,1.16-2.14,2.38-1.64,1,.41.58,1.71.58,2.63,0,15.73,0,31.47,0,47.2a7,7,0,0,1-1.79,4.93C117,94.1,108.77,103.55,100.48,113c-.54.61-1.11,1.65-2,1.35-1.07-.37-.8-1.62-.81-2.54Q97.66,99.51,97.68,87.22Z"/><path d="M165.29,112.12c0-7.87,0-15.73,0-23.6,0-.89-.43-2.21.68-2.54s1.45,1,2,1.74q13.76,19.56,27.48,39.14a7.38,7.38,0,0,1,1.41,4.44c0,13.39,0,26.79,0,40.18,0,.81.36,2-.49,2.34-1.15.51-1.57-.8-2.14-1.47-8.93-10.4-17.8-20.85-26.77-31.21a8.44,8.44,0,0,1-2.16-6.07C165.34,127.42,165.29,119.77,165.29,112.12Z"/><path d="M235.88,100.52a4.64,4.64,0,0,1-.52-3.1q0-31.29,0-62.56c0-3.91.3-4.13,3.62-2.28q21.22,11.79,27.14,35.36A4.31,4.31,0,0,1,265,72.57q-14,13.55-27.91,27.15A10.3,10.3,0,0,1,235.88,100.52Z"/><path d="M397.55,225.29c-4.25,0-8.51,0-12.76,0-2,0-3-.76-3-2.78,0-.32,0-.64,0-1-.46-11.37-.46-11.35,10-15.66,11.8-4.85,23.58-9.75,35.38-14.61,3.88-1.6,3.93-1.54,4,2.77.18,8.83.28,17.65.61,26.47.12,3-.87,4.16-3.95,4.12-10.1-.13-20.2,0-30.3,0Z"/><path d="M428.59,36.77c.12,7.11.11,7.1-6.35,9.75q-19.47,8-38.93,16.06c-3.78,1.55-4.1,1.36-4.14-2.8-.1-9-.05-18.08-.26-27.12-.06-2.53,1-3,3.18-3.08,10.74-.15,21.48-.4,32.21-.66,3.51-.08,7-.19,10.52-.48,3-.25,4.08,1,3.8,3.87A44.19,44.19,0,0,0,428.59,36.77Z"/><path d="M381,163.67c-.12-9-.14-9.07,8.06-12.49,12.55-5.24,25.13-10.4,37.71-15.57,3.35-1.37,3.6-1.19,3.64,2.41,0,4.25,0,8.5.11,12.75a3.74,3.74,0,0,1-2.64,4.12q-21.82,8.93-43.6,18c-2.43,1-3.35.31-3.29-2.21C381.07,168.35,381,166,381,163.67Z"/><path d="M429.59,89.62c.05,10.49,1.8,7.82-7.9,11.9-12.63,5.31-25.32,10.5-38,15.72-3.22,1.32-3.3,1.22-3.41-2.28-.12-3.93-.25-7.86-.45-11.78A3.75,3.75,0,0,1,382.45,99q22-9,43.9-18.1c2.22-.93,3.21-.32,3.23,2S429.59,87.39,429.59,89.62Z"/><path d="M196.82,41.05c0,4.15,0,8.29,0,12.43,0,.68.27,1.64-.65,1.93s-1.27-.62-1.7-1.15Q184,41.38,173.66,28.47c-1.25-1.55-1.18-2.51,1-2.52,6.47,0,13,0,19.42,0,2.09,0,2.75,1.08,2.72,3C196.77,33,196.82,37,196.82,41.05Z"/><path d="M97.7,39.68c0-3.62,0-7.23,0-10.85,0-2,.88-2.91,2.88-2.91,6.49,0,13,0,19.45,0,.73,0,1.63-.14,2,.61.54,1-.46,1.52-1,2.1q-10.45,11.6-21,23.17c-.46.51-.87,1.4-1.76,1s-.64-1.28-.65-2c0-3.72,0-7.44,0-11.16Z"/></g></svg>