<svg id="Camada_1" data-name="Camada 1" xmlns="http://www.w3.org/2000/svg" viewBox="0 0 512 512"><path id="transmissao" d="M65.24,169.92c0-10.65-.11-21.31,0-31.95.2-14.5,9.87-23.51,24.29-24.92,26.08-2.55,49.4,6.28,72.94,15.46,43.05,16.8,86.35,33,129.51,49.48a46.34,46.34,0,0,0,17.2,3.2c25.6-.16,51.21-.11,76.81-.05,16.49,0,26,8.94,26.4,25.33.15,5.71,2.12,7.58,7.61,7.29,6.56-.34,13.15-.19,19.71,0,6.9.17,9.21,2.6,9.58,9.55,0,.68,0,1.36,0,2,.21,14.19.21,14.19,14.75,14.19,12.46,0,24.93-.06,37.39,0,7.85.06,10.29,2.38,10.39,10.06q.23,16.65,0,33.31c-.09,7.57-2.72,10.18-10.35,10.25-15,.12-29.91.24-44.86-.05-5.66-.11-7.41,1.92-7.42,7.48C449.2,319,449,319,430.75,319c-.68,0-1.36,0-2,0-4.72.26-10-1.54-14,.86-4.37,2.63-1.61,8.37-2.68,12.65-3,11.77-11.82,19.05-24.74,19.11-24.7.11-49.41.19-74.1,0-16.29-.14-31.81,4.41-47.6,7.2-38.8,6.86-77.48,14.36-116.24,21.46-4.74.87-8.13,2.49-10.53,7.18-4.06,7.93-11.46,11.45-20.15,11.7-10,.29-19.95.33-29.91,0-13.59-.44-23.27-10.5-23.44-24.12-.15-12-.18-24,0-36,.08-4.69-1.67-6.41-6.37-6.35-15.86.17-31.72.1-47.58,0-9,0-11.22-2.27-11.28-11.29Q-.06,301.68.06,282c.05-9.24,2.08-11.27,11.14-11.29,15.64-.05,31.29-.37,46.91.13,7.45.24,7-3.88,7.24-9,.22-5.56-1-8.51-7.44-8.08-7.22.48-14.49,0-21.74.13-6.55.13-9.74-3.19-9.89-9.42-.18-8.15-.22-16.32,0-24.46.19-5.92,3.48-9.05,9.63-9,7.25.08,14.52-.34,21.74.11,6.15.37,7.84-2.08,7.65-7.9C65,192.13,65.24,181,65.24,169.92Zm332.27,96.43q0-27.89,0-55.76c0-13-2.11-15.12-14.88-15.13q-39.45,0-78.89,0a31,31,0,0,1-11.31-1.8c-52.93-20.21-105.94-40.2-158.79-60.59-14.42-5.56-29.14-5.67-44.11-4.89-6.67.35-9.88,4-9.9,10.49-.06,27.65,0,55.31-.1,83,0,3.91,1.29,6,5.47,5.86,5.66-.13,11.34-.13,17,0,3.61.1,4.68-1.54,4.64-5,0-4.75.58-9.5.54-14.25-.11-13.59-.43-27.18-.64-40.77-.07-5.1,1.41-9.15,7.45-9.2q17.34-.15,34.68,0c4.63,0,7.05,2.51,7,7.28,0,5.67.25,11.35,0,17-.26,5,1.72,6.77,6.72,6.7,15.41-.22,30.83-.08,46.24-.07,1.81,0,3.63,0,5.44.13,2.7.22,5,1.29,5.19,4.33.19,3.4-2.23,4.76-5.15,5.18a44.42,44.42,0,0,1-6.11.27c-15.19,0-30.37,0-45.56,0-3.21,0-6.6-.24-6.64,4.59s3.34,4.39,6.54,4.68c4.19.38,10.63-1.43,10.46,5.21-.16,6-6.31,4.77-10.33,4.59-5.63-.26-6.94,2.31-6.81,7.35.26,10.42-.06,20.86.11,31.28C156,274.33,152.51,272,172,272.35c5.14.08,6.81-2.17,6.65-7-.18-5.43,0-10.88.08-16.31.1-4.94,2.77-7.58,7.67-7.62q16.32-.11,32.64,0c5.3.06,7.7,2.88,7.49,8.26s.18,10.89-.09,16.32c-.23,4.83,1.9,6.46,6.47,6.25a111.38,111.38,0,0,1,14.27,0c5.37.44,7.19-1.57,7.08-6.92-.27-13.37,0-26.75-.1-40.12,0-5.09,2.13-7.58,7.31-7.51,5.89.08,11.79.18,17.67-.05,6.06-.23,8.67,2.3,8.56,8.45-.22,11.78-.12,23.57,0,35.36,0,2.48-1,6.32,3.1,6.27s3-3.86,3.07-6.36c.12-11.56.19-23.12,0-34.68-.09-6.24,2.39-9.3,8.86-9,5.43.22,10.88.23,16.31,0,6.36-.27,9.18,2.55,9.09,8.86-.13,8.61.19,17.24-.07,25.84-.18,6.23,3.67,6.18,8,6.12,4.21-.07,8.41.48,8.05-6-.32-5.64,0-11.33,0-17,0-4.78,2.26-7.08,7.09-7q9.17.12,18.36,0c5.18-.08,7.48,2.61,7.49,7.52q0,27.87,0,55.76c0,4.9-2.52,7.65-7.5,7.72-6.12.09-12.24.13-18.36,0-4.62-.09-7.07-2.53-7.05-7.28q0-8.85,0-17.68c0-2.23.23-4.57-2.44-5.81-7.27-3.38-13.52.46-13.53,8.42,0,14.28-.12,28.56,0,42.84.06,6.49-2.64,9.73-9.31,9.55-5.21-.14-10.43.09-15.64,0-7.51-.15-9.2-1.8-9.26-9.31-.09-12,0-24-.08-36,0-2.36.55-5.65-3.14-5.63s-3,3.33-3.05,5.67c-.09,12,0,24-.1,36-.05,7.51-1.67,9.09-9.25,9.24-5.43.11-10.88-.05-16.32,0-5.68.05-8.13-2.57-8-8.36.25-10.88,0-21.76.2-32.64.09-4.6-1.5-6.69-6.28-6.47-5.2.24-10.43.2-15.63,0-4.49-.16-6,1.92-5.86,6.18.19,5.2-.17,10.43.08,15.63.3,6.07-2.17,8.7-8.36,8.53-9.74-.25-19.49,0-29.24-.07-9,0-10.15-1.24-10.32-10.2,0-1.59,0-3.17,0-4.76-.21-17.07,2.18-15-15.94-15.36-5.4-.1-7.08,1.93-7,7.17.23,17.68.13,35.37,0,53.05,0,7.64-1.51,9.12-9.18,9.21q-15.3.17-30.61,0c-7.51-.08-9.49-2.29-9.27-10,.17-5.88.62-11.77.56-17.65-.17-17.31-.25-17.31-17.28-17.27-1.59,0-3.18.1-4.76,0-4.07-.22-5.63,1.69-5.6,5.71.1,20.4,0,40.81.13,61.21.06,7.32,3,10.7,10.14,11.05,9.5.47,19,.32,28.54.06,4.38-.13,8.42-2.39,8.93-7,.85-7.64,5.82-9.25,12.06-10.39,38.1-7,76.12-14.43,114.28-21.1,19.14-3.34,38-9,57.65-8.9,23.8.1,47.6.05,71.4,0,12.46,0,14.84-2.38,14.85-14.53Q397.54,294.57,397.51,266.35ZM116.32,254.22c0,26.5.18,53-.14,79.51-.07,6.37,2,8.51,8.2,8,5.4-.42,10.86-.15,16.3-.12,3.3,0,5-1.4,5.11-4.85s-1.25-5.58-5.08-5.57a56.56,56.56,0,0,1-8.13-.41c-2.43-.36-4.27-1.9-4.29-4.53s1.81-4.2,4.23-4.57a53.56,53.56,0,0,1,8.12-.43c3.79,0,5.23-1.88,5.15-5.51-.06-3.41-1.67-4.92-5-4.93a62.8,62.8,0,0,1-8.13-.4c-2.44-.34-4.27-1.86-4.34-4.48s1.76-4.23,4.17-4.61a50,50,0,0,1,8.12-.45c3.75,0,5.27-1.82,5.2-5.47,0-3.39-1.6-4.95-5-5a59.59,59.59,0,0,1-8.13-.39c-2.43-.33-4.27-1.83-4.37-4.46s1.73-4.18,4.13-4.63a34,34,0,0,1,6.76-.44c3.84.06,6.7-.63,6.61-5.48-.08-4.51-2.8-5.1-6.33-5-1.58,0-3.17,0-4.76-.07-3.1-.18-6.32-.84-6.39-4.6-.08-4.12,3.27-4.95,6.65-5.17,1.8-.11,3.62-.14,5.43-.1,3.64.07,5.39-1.53,5.39-5.3s-1.91-5.24-5.5-5.15c-2.26.06-4.53,0-6.79-.12-2.71-.18-5-1.29-5.23-4.3-.21-3.35,2.15-4.82,5.11-5.22a47.88,47.88,0,0,1,6.78-.27c3.48,0,5.55-1.18,5.64-5.07.1-4.28-2.12-5.56-5.94-5.4a59.32,59.32,0,0,1-6.11-.1c-3-.18-5.55-1.36-5.5-4.74s2.6-4.56,5.54-4.88a46,46,0,0,1,6.1-.19c3.84.1,6-1.3,5.91-5.51-.06-4-2.19-5-5.66-5a58.16,58.16,0,0,1-7.47-.24c-2.47-.27-4.33-1.63-4.44-4.31a4.5,4.5,0,0,1,4-4.78,46.63,46.63,0,0,1,8.1-.59c3.58,0,5.46-1.44,5.48-5.24s-1.75-5.32-5.4-5.23a68.76,68.76,0,0,1-7.46-.2c-2.47-.22-4.44-1.45-4.67-4.1-.25-3,1.69-4.69,4.37-5.15a52.31,52.31,0,0,1,8.12-.48c3.84-.05,5.1-2.13,5-5.67s-1.85-4.8-5.14-4.77c-5.44.05-10.9.33-16.3-.11-6.21-.51-8.24,1.71-8.17,8C116.5,202.11,116.31,228.16,116.32,254.22ZM79.57,266.69c0,8.14.11,16.27,0,24.4-.08,4,1.5,5.79,5.57,5.66,5.42-.16,10.84-.08,16.26-.08,2.88,0,5-1.05,5-4.21.07-16.47,1.85-32.92.38-49.41-.39-4.37-2.5-5.82-6.6-5.66-4.74.18-9.5.21-14.23,0s-6.55,1.53-6.39,6.29C79.74,251.33,79.56,259,79.57,266.69Zm-40.18,51.7v-.05c6.77,0,13.55-.13,20.33.05,4.14.12,5.63-1.66,5.55-5.65-.16-7.23-.19-14.46,0-21.69.11-4.3-1.5-6.23-5.92-6.06-5,.19-9.94,0-14.91,0-9.49,0-9.53,0-11.18,9.59-.42,2.45-1.36,4.49-4,4.81-3,.36-4.56-1.57-5.17-4.27a17.35,17.35,0,0,1-.51-4.69c.21-3.42-.38-5.65-4.66-5.47s-4.59,2.72-4.57,5.93c0,7.23.16,14.46,0,21.68-.13,4.49,1.82,6,6.09,5.85C26.73,318.24,33.06,318.39,39.39,318.39ZM434.3,266.7c0-7.92.07-15.84,0-23.76-.16-16.81,2.14-14.81-15.46-14.94-.91,0-1.81.05-2.71.11-1.78.12-3.09.87-3.2,2.81s1,2.87,2.82,3.17c2.85.46,5.52,1.43,5.7,4.76s-2.46,4.56-5.25,5.16c-2.36.51-3.53,1.79-3.45,4.24a3.59,3.59,0,0,0,3.17,3.77c2.78.6,5.53,1.61,5.55,5s-2.5,4.57-5.44,5c-2.53.35-3.35,2-3.35,4.28s.49,4.1,3.14,4.41c2.92.34,5.55,1.23,5.53,4.71s-2.53,4.57-5.46,4.9c-2.16.25-3.29,1.23-3.24,3.48s.16,4.19,2.81,4.7c3.05.59,6.06,1.5,6,5.24-.05,3.33-2.82,4.3-5.62,4.88-1.73.36-3,1.2-2.9,3.14.11,2.41,1.89,2.86,3.81,2.9,3.62.07,7.26-.15,10.86.1,5,.36,6.84-1.87,6.75-6.77C434.15,287.52,434.29,277.11,434.3,266.7Zm39.3-12.89c-2,0-4.06-.05-6.09,0-21.42.59-17.76-4.46-18.16,19.51-.06,4.08,1.68,5.64,5.69,5.57,8.12-.14,16.26.12,24.38-.06,21.33-.45,17.8,4.24,18.2-19.56.07-4.14-1.77-5.6-5.73-5.5C485.8,253.94,479.7,253.82,473.6,253.81ZM188.39,277c0,7,0,14,0,21.07,0,2.34.12,4.95,3.2,5,7.24.18,14.49.1,21.73,0a2.61,2.61,0,0,0,2.76-2.47,2.68,2.68,0,0,0-2.75-3.16c-2.47-.2-5-.17-7.46-.23-3.36-.08-6.89-.55-6.81-4.78.08-4,3.5-4.83,6.87-5,2.26-.13,4.53-.07,6.79-.25,1.67-.12,3.28-.7,3-2.8-.18-1.63-1.65-2-3.05-2.11-2.93-.18-5.89-.11-8.81-.44-2.72-.3-4.87-1.78-4.81-4.75s2.25-4.27,5-4.65c1.33-.18,2.73,0,4.06-.24,2.65-.47,7.19,1.51,7.38-2.37.22-4.23-4.41-2.34-7-2.84-1.55-.29-3.17-.2-4.72-.5-2.66-.5-4.83-1.85-4.74-4.85s2.34-4.22,5.08-4.4c2.48-.16,5-.08,7.47-.16,2.07-.06,4.44-.08,4.49-2.91s-2.26-3-4.36-3c-5.66-.06-11.33.15-17-.11-4.62-.21-6.62,1.44-6.43,6.24C188.58,263.9,188.38,270.47,188.39,277Zm74.86-3.71c0,13.59.07,27.19-.05,40.78,0,4,1.42,6.15,5.54,5.62,3.22-.41,7.76,1.92,8.77-3.68.8-4.51-1.12-6.72-5.78-7.07-2.91-.21-5.3-1.77-5-5.24.28-3,2.56-4.16,5.27-4.24,3.39-.1,5.58-1,5.66-5,.09-4.2-2-5.47-5.75-5.84-2.89-.28-5.41-1.62-5.19-5.09s2.79-4.44,5.75-4.5c3.21-.07,5.11-1.19,5.17-4.76s-1-5.6-4.85-5.9c-3.06-.24-6.13-1.18-6.06-5s3.06-4.69,6.22-4.74c3.53-.07,4.68-1.95,4.68-5.21s-1.22-5.08-4.66-5.37c-3.06-.25-6.22-1.08-6.24-4.88,0-4.25,3.36-4.86,6.71-5s4.07-2.11,4.18-5c.17-4.25-2.08-5.64-5.89-5.46s-8.6-1.2-8.54,5.48C263.35,246.6,263.25,260,263.25,273.33Zm40.56.19h0c0,13.56.1,27.13-.05,40.7,0,4.7,2.39,6,6.39,5.52,3-.34,7.24,1.65,8-3.74.59-4.43-.92-6.87-5.78-6.91-2.91,0-5.58-1.38-5.65-4.68s2.41-4.71,5.42-4.87c3.43-.18,6.2-.52,6.16-5.15,0-4.26-2.16-5.37-5.87-5.61-3.17-.21-5.94-1.65-5.65-5.39.25-3.33,2.9-4.36,5.87-4.34,3.42,0,5.54-.86,5.62-4.91s-1.76-5.6-5.64-5.77c-3.13-.14-6.06-1.38-5.85-5.17.18-3.3,2.84-4.42,5.79-4.5,3.29-.09,5.65-.7,5.71-4.85s-1.53-5.72-5.52-5.87c-3.11-.11-6.15-1.28-6-5s3.2-4.55,6.36-4.67c2.71-.11,4.94-.57,5.05-4s-.1-6.65-4.7-6.42c-4.13.2-9.73-1.95-9.68,5.67C303.87,246.83,303.81,260.17,303.81,273.52ZM53.34,225.32v.08c-2.7,0-5.4-.05-8.1,0a3.72,3.72,0,0,0-3.84,3.05c-2.16,7.44.39,11,8.09,11.07,2.7,0,5.42-.18,8.1,0,5.14.43,7.77-.88,7.84-6.92.06-6.26-2.44-8-8-7.37A34.17,34.17,0,0,1,53.34,225.32Z"/></svg>