<svg id="Camada_1" data-name="Camada 1" xmlns="http://www.w3.org/2000/svg" viewBox="0 0 512 512"><defs><style>.cls-1{fill:#1d1d1b;}.cls-2{fill:#fff;}</style></defs><g id="pneu"><path class="cls-1" d="M164,294.88c-12.72,9.17-29.63,14.24-47.56,14.24-2.63,0-5.25-.14-7.88-.33a6.52,6.52,0,0,0-.92-.09,158.17,158.17,0,0,1,.14-105.82h1.52c2.58,0,5.2.09,7.83.28,19.59,1.61,37.43,8.89,50.24,20.51,12.07,11,18.11,24.47,17,38.11C183.34,274.41,176.11,286.17,164,294.88Z"/><path class="cls-1" d="M204,246.53a9.22,9.22,0,0,1,6.45,15.81,9.15,9.15,0,0,1-6.5,2.67h0a9.18,9.18,0,0,1-9.17-9.26,9.18,9.18,0,0,1,9.26-9.22Z"/><path class="cls-1" d="M225.6,286.12a9.14,9.14,0,0,1,2.68,6.5,9.2,9.2,0,0,1-9.27,9.26,9.26,9.26,0,0,1-6.49-15.81,9.25,9.25,0,0,1,6.54-2.67A9.09,9.09,0,0,1,225.6,286.12Z"/><path class="cls-1" d="M228.55,219.06a9.05,9.05,0,0,1-2.72,6.54,9.14,9.14,0,0,1-6.49,2.72,9.23,9.23,0,0,1-6.5-15.8,9.21,9.21,0,0,1,15.71,6.54Z"/><path class="cls-1" d="M239.2,351.15c3.83,16.87,1.34,36-6.91,53.79-1,2.12-2,4.19-3.18,6.17a157,157,0,0,1-92.23-52.22c13.09-27,37.24-45,60.56-45a39.44,39.44,0,0,1,17,3.69C226.85,323.27,235.65,335.2,239.2,351.15Z"/><path class="cls-1" d="M232.29,107.16c8.25,17.79,10.74,36.91,6.91,53.78-3.55,15.9-12.35,27.84-24.75,33.6a40.18,40.18,0,0,1-17,3.69c-11.66,0-23.55-4.52-34.15-12.4a89.77,89.77,0,0,1-26.45-32.72,157.34,157.34,0,0,1,92.22-52.22C230.21,102.92,231.27,105,232.29,107.16Z"/><path class="cls-1" d="M265,308a9.26,9.26,0,0,1-2.67,6.54,9.45,9.45,0,0,1-6.55,2.77h0a9.16,9.16,0,0,1-6.5-2.68,9.42,9.42,0,0,1-2.77-6.54,9.23,9.23,0,0,1,9.22-9.27h.09A9.27,9.27,0,0,1,265,308Z"/><path class="cls-1" d="M262.75,197.44a9.39,9.39,0,0,1,2.68,6.59,9.28,9.28,0,0,1-9.22,9.18h-.09a9.25,9.25,0,1,1,6.63-15.77Z"/><path class="cls-1" d="M286.12,286.4a9.14,9.14,0,0,1,6.5-2.68,9.28,9.28,0,0,1,6.54,2.72,9.14,9.14,0,0,1,2.68,6.5,9.35,9.35,0,0,1-2.72,6.59,9.13,9.13,0,0,1-6.5,2.67,9.22,9.22,0,0,1-6.5-15.8Z"/><path class="cls-1" d="M286.35,225.83a9.23,9.23,0,0,1,0-13.08,9.1,9.1,0,0,1,6.49-2.68,9.2,9.2,0,0,1,9.22,9.27,9.16,9.16,0,0,1-2.67,6.54,9.33,9.33,0,0,1-6.55,2.67A9.21,9.21,0,0,1,286.35,225.83Z"/><path class="cls-1" d="M308,265.52a9.24,9.24,0,0,1-9.17-9.31v-.09a9.06,9.06,0,0,1,2.72-6.55,9.17,9.17,0,0,1,6.5-2.67,9,9,0,0,1,6.55,2.72,9.34,9.34,0,0,1,2.71,6.54v.14a9.29,9.29,0,0,1-9.26,9.22Z"/><path class="cls-1" d="M375,359a157.21,157.21,0,0,1-92.27,52.12c-1.1-2-2.16-4.05-3.13-6.17-8.3-17.79-10.74-36.92-7-53.79,3.6-15.95,12.4-27.88,24.75-33.6a39.68,39.68,0,0,1,17-3.69C337.78,313.86,362,331.93,375,359Z"/><path class="cls-1" d="M272.66,160.94c-3.78-16.87-1.34-36,7-53.78,1-2.17,2.07-4.24,3.18-6.27a156.89,156.89,0,0,1,92.27,52.17c-13.09,27.05-37.29,45.17-60.61,45.17a40.42,40.42,0,0,1-17-3.69C285.06,188.78,276.26,176.84,272.66,160.94Z"/><path class="cls-1" d="M404.2,202.88a157.09,157.09,0,0,1,9.22,53.93,158.76,158.76,0,0,1-9.08,51.94c-.1,0-.19,0-.23,0-2.63.19-5.26.33-7.84.33h0c-17.93-.05-34.85-5.07-47.57-14.24-12.12-8.71-19.36-20.47-20.37-33.1-1.11-13.64,4.93-27.14,17-38.11,12.81-11.62,30.65-18.9,50.23-20.51,2.63-.19,5.26-.28,7.84-.28Z"/><path class="cls-1" d="M256,0C114.62,0,0,114.62,0,256S114.62,512,256,512,512,397.38,512,256,397.38,0,256,0Zm180.8,305c-.09.28-.14.55-.23.83-.23.87-.5,1.8-.73,2.67l-.14.42c-.56,1.79-1.11,3.55-1.66,5.34a3,3,0,0,1-.19.51c-.27.88-.6,1.8-.92,2.72l-.14.51a188.27,188.27,0,0,1-31.57,56.27s0,.05,0,.05c-.56.69-1.16,1.38-1.76,2.07l-.5.65c-1.85,2.16-3.73,4.28-5.67,6.4-.14.14-.32.33-.46.46-2,2.17-4.06,4.24-6.18,6.32,0,.09-.14.14-.23.23a187,187,0,0,1-85,47.33c-.09,0-.19.05-.28.05-1.7.41-3.41.83-5.07,1.2l-.78.13-2.58.56-.79.14c-1.47.27-2.95.55-4.42.78l-1.48.28c-.73.09-1.52.23-2.25.32-1,.18-2,.32-3.09.46A188.16,188.16,0,0,1,256,443.28a190.62,190.62,0,0,1-24.71-1.61c-.41-.09-.83-.14-1.2-.19-1.42-.18-2.81-.41-4.14-.64-.46,0-.88-.14-1.34-.19-1.66-.32-3.32-.59-5-.92-.09,0-.14,0-.23,0l-2.67-.56L216,439c-1.75-.42-3.5-.79-5.26-1.25a.17.17,0,0,1-.13,0,185.76,185.76,0,0,1-82.92-45.31c-.74-.65-1.43-1.34-2.12-2l-.41-.42c-2-2-4.06-4.05-6-6.17-.14-.19-.32-.33-.46-.51-1.94-2.07-3.87-4.24-5.72-6.45-.13-.14-.27-.32-.41-.46A187.69,187.69,0,0,1,79,317.32c-.33-.92-.65-1.84-.93-2.76a5.25,5.25,0,0,1-.23-.74c-.55-1.71-1.1-3.41-1.61-5.12,0-.18-.09-.37-.14-.55l-.69-2.35c-.14-.51-.23-1-.37-1.43-.23-.78-.41-1.52-.6-2.3s-.46-1.89-.69-2.86a189,189,0,0,1,.69-89.37c.19-.69.37-1.38.56-2.07s.32-1.15.46-1.71.37-1.38.6-2.07.46-1.66.73-2.54l.83-2.62c.14-.51.33-1,.46-1.48.28-.74.51-1.47.74-2.16.14-.42.28-.83.42-1.2.46-1.34.92-2.58,1.43-3.87a10.61,10.61,0,0,1,.5-1.34c.28-.74.56-1.48.83-2.21a188,188,0,0,1,30.56-51,3.7,3.7,0,0,0,.37-.46c1.89-2.21,3.78-4.33,5.76-6.45a6.83,6.83,0,0,1,.46-.51c1.94-2.12,4-4.19,6-6.17l.41-.42A187,187,0,0,1,216,73l.6-.13c2.62-.56,5.3-1.06,8-1.52.37,0,.78-.14,1.15-.19A186.55,186.55,0,0,1,256,68.72a189.54,189.54,0,0,1,24.7,1.61l2,.28c1.15.18,2.26.32,3.41.51.42.09.88.13,1.29.23,1.71.27,3.41.59,5.07.92.05,0,.1,0,.19,0l2.67.56.65.13c1.79.37,3.54.79,5.34,1.25h.09c.93.23,1.89.51,2.86.74a186.89,186.89,0,0,1,43,17.46,189.39,189.39,0,0,1,36.92,27.06l2.16,2c.09.09.19.23.28.32,2.12,2,4.15,4.1,6.17,6.27.14.13.28.32.42.46,1.94,2.12,3.87,4.24,5.71,6.45.14.18.33.37.46.55a186.46,186.46,0,0,1,30.47,50.79c.32.79.64,1.62,1,2.4.14.37.27.74.41,1.06.46,1.29.92,2.63,1.43,3.92.14.46.28.87.42,1.29.27.69.5,1.38.73,2.07l.56,1.8c.23.74.46,1.52.73,2.26.28.92.56,1.89.83,2.85.14.56.33,1.11.46,1.66.23.79.47,1.62.65,2.45a14.1,14.1,0,0,1,.37,1.38,187.65,187.65,0,0,1-.65,95.45Z"/><path class="cls-2" d="M314.56,249.62A9,9,0,0,0,308,246.9a9.17,9.17,0,0,0-6.5,2.67,9.06,9.06,0,0,0-2.72,6.55v.09a9.24,9.24,0,0,0,9.17,9.31H308a9.29,9.29,0,0,0,9.26-9.22v-.14A9.34,9.34,0,0,0,314.56,249.62Zm-21.67-21.07a9.33,9.33,0,0,0,6.55-2.67,9.16,9.16,0,0,0,2.67-6.54,9.2,9.2,0,0,0-9.22-9.27,9.1,9.1,0,0,0-6.49,2.68,9.24,9.24,0,0,0,6.49,15.8Zm-.27,55.17a9.14,9.14,0,0,0-6.5,2.68,9.22,9.22,0,0,0,6.5,15.8,9.13,9.13,0,0,0,6.5-2.67,9.35,9.35,0,0,0,2.72-6.59,9.14,9.14,0,0,0-2.68-6.5A9.28,9.28,0,0,0,292.62,283.72Zm-36.41-89a9.25,9.25,0,0,0-.09,18.49h.09a9.28,9.28,0,0,0,9.22-9.18,9.39,9.39,0,0,0-2.68-6.59A9.26,9.26,0,0,0,256.21,194.72Zm-.42,104.07h-.09a9.23,9.23,0,0,0-9.22,9.27,9.42,9.42,0,0,0,2.77,6.54,9.16,9.16,0,0,0,6.5,2.68h0a9.45,9.45,0,0,0,6.55-2.77,9.23,9.23,0,0,0-6.55-15.72Zm-36.45-89a9.25,9.25,0,0,0-6.59,15.72,9.25,9.25,0,0,0,6.59,2.76,9.14,9.14,0,0,0,6.49-2.72,9.22,9.22,0,0,0-6.49-15.76Zm-.28,73.56a9.22,9.22,0,0,0-6.59,15.72,9.15,9.15,0,0,0,6.54,2.76,9.2,9.2,0,0,0,9.27-9.26,9.22,9.22,0,0,0-9.22-9.22Zm-5.85-27.56a9.29,9.29,0,0,0-9.22-9.31,9.18,9.18,0,0,0-9.26,9.22A9.18,9.18,0,0,0,203.9,265h0a9.15,9.15,0,0,0,6.5-2.67A9.26,9.26,0,0,0,213.21,255.84Z"/><path class="cls-1" d="M255.79,298.79h-.09a9.23,9.23,0,0,0-9.22,9.27,9.42,9.42,0,0,0,2.77,6.54,9.16,9.16,0,0,0,6.5,2.68h0a9.45,9.45,0,0,0,6.55-2.77,9.23,9.23,0,0,0-6.55-15.72Zm43.37-12.35a9.28,9.28,0,0,0-6.54-2.72,9.14,9.14,0,0,0-6.5,2.68,9.22,9.22,0,0,0,6.5,15.8,9.13,9.13,0,0,0,6.5-2.67,9.35,9.35,0,0,0,2.72-6.59A9.14,9.14,0,0,0,299.16,286.44Zm-73.56-.32a9.09,9.09,0,0,0-6.54-2.72,9.22,9.22,0,0,0-6.59,15.72,9.15,9.15,0,0,0,6.54,2.76,9.2,9.2,0,0,0,9.27-9.26A9.14,9.14,0,0,0,225.6,286.12Zm89-36.5A9,9,0,0,0,308,246.9a9.17,9.17,0,0,0-6.5,2.67,9.06,9.06,0,0,0-2.72,6.55v.09a9.24,9.24,0,0,0,9.17,9.31H308a9.29,9.29,0,0,0,9.26-9.22v-.14A9.34,9.34,0,0,0,314.56,249.62Zm-104-.33a9.25,9.25,0,0,0-6.54-2.76,9.18,9.18,0,0,0-9.26,9.22A9.18,9.18,0,0,0,203.9,265h0a9.15,9.15,0,0,0,6.5-2.67,9.17,9.17,0,0,0,.09-13Zm88.91-36.5a9.3,9.3,0,0,0-6.55-2.72,9.1,9.1,0,0,0-6.49,2.68,9.24,9.24,0,0,0,6.49,15.8,9.33,9.33,0,0,0,6.55-2.67,9.16,9.16,0,0,0,2.67-6.54A9.33,9.33,0,0,0,299.44,212.79Zm-73.56-.23a9.24,9.24,0,0,0-13.13,13,9.25,9.25,0,0,0,6.59,2.76,9.14,9.14,0,0,0,6.49-2.72,9.23,9.23,0,0,0,0-13Zm36.87-15.12a9.26,9.26,0,1,0-6.63,15.77h.09a9.28,9.28,0,0,0,9.22-9.18A9.39,9.39,0,0,0,262.75,197.44Z"/></g></svg>