<svg id="Camada_1" data-name="Camada 1" xmlns="http://www.w3.org/2000/svg" viewBox="0 0 512 512"><g id="oil"><path d="M189.73,123.49c-5,2.39-10.22,5.18-15.24,7.87-4.42,2.37-8.59,4.6-12.7,6.62l-6.91,3.37c-13.32,6.5-25.91,12.65-37,19.37C105,168.54,99.5,178.13,101,190c1.79,14.09,19.41,49,27.89,65.73,1.51,3,2.82,5.62,3.85,7.7,9.12,18.48,16.67,32.36,24,45.79,7.5,13.78,15.25,28,24.77,47.31,2.41,4.88,4.82,10.27,7.41,16,6.14,13.6,13.78,30.52,20,36.43,11.68,11.13,31.69,8.73,66.92-8h0c7.95-3.79,16.15-8,24.09-12.11,6-3.08,12.12-6.25,18.07-9.19,2.9-1.42,6.11-3,9.55-4.6l12.18-5.79c17.49-8.33,53.9-25.67,64.67-38.09,14.26-16.48,9.91-27.06-7.4-61.23q-3.21-6.31-6.75-13.47c-1.45-3-3.07-6.27-4.8-9.86C375,225,357.49,189,345.78,176.66c-4.68-4.93-13.64-8.71-23.13-12.72-2.91-1.23-5.87-2.48-8.85-3.82-17.06-7.6-30.57-13.14-44.88-19-9-3.69-18.3-7.51-28.59-11.88-3.18-1.37-6.47-3-9.67-4.58-8-4-17.15-8.49-22.83-7.58-4.69.75-10.6,2.85-18.1,6.42ZM283.94,418h0c-30.65,14.6-65.09,26.57-88.08,4.67-8.89-8.46-16.67-25.68-24.2-42.33-2.52-5.55-4.88-10.78-7.14-15.39-9.34-19-17-33-24.41-46.64s-15.05-27.64-24.32-46.46c-1-2-2.3-4.59-3.78-7.53-13.34-26.39-27.73-55.9-29.77-71.88-2.45-19.53,6.47-36.06,25.82-47.83,11.85-7.18,24.81-13.51,38.54-20.21l6.86-3.35c3.8-1.87,7.84-4,12.11-6.32,5.21-2.79,10.61-5.68,16-8.27,9.27-4.41,16.64-7,23.21-8,11.67-1.88,23.65,4.06,34.23,9.3,3.09,1.53,6,3,8.71,4.13,10.16,4.32,19.4,8.11,28.33,11.78,13.81,5.67,28.1,11.52,45.41,19.25,2.87,1.28,5.72,2.48,8.5,3.66,11.37,4.79,22.09,9.32,29.48,17.1,13.74,14.42,30.62,49.25,43,74.68,1.71,3.55,3.31,6.83,4.75,9.76q3.48,7.05,6.66,13.28c16.87,33.32,28,55.34,4.82,82.14-12.34,14.23-43,29.55-70.83,42.79l-12.18,5.78c-3.36,1.6-6.5,3.11-9.33,4.5-5.78,2.85-11.6,5.85-17.75,9-8.07,4.16-16.41,8.47-24.64,12.38ZM41.37,44.76c-3.85,1.84-8.59,4.3-11.18,7.16s4,15.49,7.46,22.36c3.27,6.47,6.67,13.16,8.49,19.58A9.45,9.45,0,0,1,42.75,104c-18.71,14.21-25.93,28.2-23.4,45.39,2.12,14.29,13.11,35,23.74,55,3.73,7,7.58,14.25,10.94,21l.81,1.65c26.4,53.55,54.3,110.16,79.24,160.68,4.36,8.85,8.46,18,12.42,26.93,8,17.88,16.22,36.38,27.08,53.34,10.71,16.68,29.35,26.06,47.46,23.9,5.66-.68,13.64-3.5,24.39-8.62,6.4-3.05,13.22-6.63,19.84-10.1,5.38-2.82,11-5.75,16.28-8.37l131.67-64.92c6.9-3.41,14.37-6.76,21.53-10,5.52-2.48,11.23-5,16.54-7.57,7.3-3.48,17.82-8.75,24.66-14.29,11.52-9.29,18.83-28.53,16.69-43.84-2.51-17.9-17-44.62-30.93-70.46-5.56-10.26-11.29-20.88-16.18-30.81l-12.77-25.88c-4.45-9-8.94-18.12-13.49-27.35-2-4.09-4-8.33-5.9-12.44-6.14-13.16-12.5-26.78-19.94-34.26-7-7-21.27-12.35-33.91-17.09-5.45-2-11.07-4.17-16.13-6.38l-16.26-7.21c-30.55-13.5-56.94-25.17-90.87-39.66-4.74-2-9.61-4.43-14.75-7-12.24-6.1-26.13-13-35.68-12.35-5.59.39-12,2.39-20.24,6.3-5.25,2.51-10.57,5.46-16.18,8.57s-11.53,6.4-17.44,9.21h0a104.52,104.52,0,0,1-14.3,5.71A9.47,9.47,0,0,1,106.8,59c-4.54-7.5-8-14-10.71-19.19-6.92-13.07-8.45-15.06-11.7-15.15-1,0-3.26.27-8.06,2.56-3,1.43-6.21,3.26-9.33,5-2.89,1.65-5.64,3.22-8.36,4.55-3.42,1.7-7,3.3-10.4,4.81-2.37,1-4.68,2.08-6.87,3.12ZM253.56,500.4c-13,6.18-22.32,9.36-30.26,10.31-25.26,3-51-9.72-65.65-32.45-11.61-18.18-20.16-37.33-28.42-55.85-4.07-9.13-7.91-17.76-12.11-26.27C92.19,345.63,64.28,289,37.88,235.46l-.81-1.65c-3.23-6.53-6.85-13.33-10.67-20.53C15,191.83,3.23,169.65.64,152.12c-3.26-22.25,5-41.54,25.21-58.79-1.45-3.36-3.28-7-5.07-10.51C13.36,68.16,5,51.54,16.2,39.2,21,33.94,27.5,30.44,33.25,27.7c2.34-1.12,4.79-2.21,7.31-3.33C43.72,23,47,21.5,50.28,19.88c2.2-1.08,4.72-2.52,7.37-4,3.41-1.94,6.92-3.94,10.56-5.67C74.78,7.05,80.1,5.66,84.94,5.8c14.74.43,20.53,11.36,27.86,25.2,1.85,3.5,3.86,7.32,6.25,11.55,1.54-.64,3.12-1.36,4.8-2.15h0c5.37-2.56,11-5.67,16.39-8.68,5.63-3.12,11.42-6.34,17.23-9.1,10.42-5,19-7.54,27.05-8.09,14.67-1,31,7.11,45.41,14.28,4.89,2.44,9.52,4.73,13.75,6.53,34,14.55,60.48,26.24,91.09,39.77L351,82.3c4.55,2,9.7,3.93,15.14,6C381.31,94,397,99.85,406.83,109.73s16.83,25,23.68,39.61c1.86,4,3.79,8.15,5.72,12.06,4.55,9.25,9,18.32,13.49,27.36,4.26,8.64,8.5,17.24,12.75,25.89,4.73,9.6,10.4,20,15.87,30.17,14.77,27.31,30,55.55,33,76.83,3.1,22-6.8,47.68-23.52,61.16-6.46,5.24-15.24,10.38-28.41,16.66-5.5,2.61-11.31,5.22-16.92,7.74-7,3.15-14.27,6.4-20.92,9.68L289.91,481.81c-5.12,2.52-10.58,5.39-15.86,8.16-6.76,3.55-13.77,7.22-20.49,10.43Z"/><path d="M236,211.61A133.75,133.75,0,0,1,237.59,234c-.18,8.54-2.31,16.25-4.37,23.71s-3.94,14.29-3.56,20.94a49.53,49.53,0,0,0,24,40c12.54,7.42,26.95,8.28,38.27,2.15,8.24-4.47,14.21-12.5,16.85-22.62a48.36,48.36,0,0,0-5.94-37.27c-8-12.59-19.85-18.73-32.45-25.22-6.89-3.57-14-7.24-20.68-12.08A116,116,0,0,1,236,211.61Zm62.49,127c-16.71,8-37.08,6.56-54.49-3.74a68.38,68.38,0,0,1-33.18-55.17c-.56-9.75,1.87-18.54,4.21-27,1.82-6.63,3.55-12.9,3.69-19.07.24-11.82-2-23.56-4.37-36-1-5.09-2-10.35-2.84-15.85A9.45,9.45,0,0,1,227.92,174c1.86,2.14,3.8,4.42,5.81,6.78,8.18,9.61,17.43,20.51,27,27.49,5.49,4,11.68,7.19,18.23,10.57,13.62,7,29.06,15,39.76,31.92A66.61,66.61,0,0,1,327,302.9c-4,15.23-13.24,27.47-26.12,34.46-.81.44-1.62.85-2.44,1.24Z"/></g></svg>