<svg id="Camada_1" data-name="Camada 1" xmlns="http://www.w3.org/2000/svg" viewBox="0 0 512 512"><g id="ar"><path d="M244.65,285.86c1.55,65.94-55,124-125.32,122.36C56,406.75-.94,353.89,0,284,.9,218.84,54.29,162,125.4,163.51,193.4,164.92,245.93,221.59,244.65,285.86ZM122.33,382.32c51,.81,95.53-41.26,96.61-94.1a96.5,96.5,0,1,0-193-2.3C26.08,342.82,73,383.05,122.33,382.32Z"/><path d="M330.77,175.35c-15.65.6-30.88-2.14-46-5.6C265,165.24,245.74,159,226.43,153s-38.37-12-58.08-16a194.12,194.12,0,0,0-43.81-3.84c-23.18.53-45.91,3.68-68.08,10.6-2.69.84-5.38,1.84-8.3,1.5A11.1,11.1,0,0,1,38.28,136c-.83-6.35,1.86-11.16,7.67-13.08a226.35,226.35,0,0,1,23-6.26,247,247,0,0,1,35.54-5.26c5.25-.35,10.5-.42,15.74-.7,4.17-.22,8.3-.85,12.5-.7a244.94,244.94,0,0,1,35.33,3.59c23.55,4.32,46.27,11.63,69.06,18.72,18.93,5.89,37.79,12,57.21,16.17,12.27,2.63,24.63,4.66,37.25,4.41a212.52,212.52,0,0,0,40.82-5.1c22.6-4.91,44.39-12.51,66.17-20.11q10.13-3.54,20.24-7.12c4.46-1.59,4.46-1.63,3.1-6-.81-2.57-1.74-5.12-2.45-7.72-.77-2.8-.14-3.46,2.78-2.85,8.45,1.76,16.87,3.61,25.31,5.44l20.94,4.54c.39.09.81.1,1.19.2,2.67.74,2.93,1.44,1.13,3.46q-6.73,7.55-13.54,15-9.53,10.5-19.06,21c-2.2,2.42-2.86,2.3-4-.84-.87-2.41-1.52-4.9-2.31-7.34-1.46-4.49-1.57-4.59-5.92-3.07-8.41,2.93-16.78,6-25.19,8.9-19.11,6.66-38.27,13.17-58,17.7a273.16,273.16,0,0,1-34.25,5.73C342.6,175.27,336.69,175.17,330.77,175.35Z"/><path d="M461.46,322.81c5.8,1.22,11.73,2.46,17.66,3.73q14.63,3.15,29.24,6.35c.78.17,1.55.43,2.33.65,1.53.41,1.56,1.26.69,2.37-.67.85-1.29,1.74-2,2.53q-15.5,17.1-31,34.16c-2.15,2.36-3,2.2-4.07-.83-1-2.79-1.89-5.63-2.83-8.45-1.09-3.29-1.14-3.38-4.59-2.21-5.87,2-11.71,4.1-17.56,6.17-19.46,6.87-39,13.66-59,18.82a270.19,270.19,0,0,1-32.89,6.53c-6.55.85-13.12,1.22-19.71,1.68-20.18,1.43-39.68-2.35-59.1-7-12.46-3-24.7-6.81-37-10.51-.26-.08-.51-.18-.76-.27-3.34-1.19-3.51-1.56-1.61-4.47,3.11-4.74,6.52-9.29,9.23-14.28,1-1.9,2.3-2.28,4.32-1.64,5.4,1.72,10.83,3.32,16.27,4.9a298.39,298.39,0,0,0,43.37,9.65,142.21,142.21,0,0,0,30.25.51c27.84-2.15,54.18-10.37,80.4-19.18,11.63-3.91,23.18-8.07,34.77-12.13,1-.35,2-.85,3-1.2,1.78-.61,2.2-1.72,1.6-3.47-1.12-3.33-2.22-6.66-3.15-10C458.82,323.25,459.44,322.67,461.46,322.81Z"/><path d="M263.83,252.47c-.09-1.55.67-2.19,2.23-1.77,3.13.85,6.23,1.79,9.36,2.6,10.44,2.7,20.88,5.38,31.55,7.07a140.26,140.26,0,0,0,31.42,1.8c23-1.57,45.23-7,67.15-13.86,18.14-5.72,36-12.32,53.95-18.55,3.68-1.27,3.79-1.52,2.62-5.24-.85-2.7-1.81-5.38-2.57-8.1-.81-2.9-.3-3.49,2.66-2.9,6.74,1.35,13.45,2.81,20.17,4.26,8.7,1.86,17.38,3.77,26.08,5.63,4.7,1,4.18,1.85,1.63,4.6-7.26,7.81-14.32,15.8-21.47,23.7q-5.16,5.7-10.37,11.35c-2.2,2.38-2.87,2.27-4-.89-1-2.66-1.71-5.4-2.57-8.1-1.1-3.46-1.48-3.62-4.87-2.45-16.57,5.74-33.1,11.63-49.75,17.14A372.48,372.48,0,0,1,365,282.14a206.52,206.52,0,0,1-48.39,2.4c-14-.83-27.71-4-41.29-7.56q-2.94-.76-5.85-1.62c-1.22-.37-2.26-1-2.38-2.45A196.48,196.48,0,0,0,263.83,252.47Z"/><path d="M160.31,314.4c1.22,4.56,2.3,8.57,3.36,12.58.31,1.16,1,2.54-.14,3.41a7.26,7.26,0,0,1-5.33,1.52c-1.23-.15-1.38-1.5-1.66-2.55-1.56-5.73-3.28-11.42-4.63-17.2a8.57,8.57,0,0,0-4.71-6.09c-5.47-2.94-10.77-6.19-16.18-9.24-2.84-1.6-3.19-1.41-3.22,1.8-.06,6.75,0,13.51,0,20.26a6.87,6.87,0,0,0,2.28,5.37c4.26,4.14,8.45,8.36,12.62,12.6,2.45,2.49,1.64,5.58-1.69,6.71-1.43.49-2.31-.4-3.18-1.25-2.5-2.46-5-5-7.47-7.43-.56-.54-1-1.3-2.17-1.36-.81,3-.48,5.6,2,7.9,3.08,2.84,6,5.86,8.88,8.88,2.05,2.13,1.95,2.57-.41,4.95s-2.83,2.48-5,.52c-1.68-1.53-3.26-3.17-5.09-5-1.28,1.91-.64,3.7-.84,5.34-.31,2.6-.65,3.11-3.23,3.15-7.32.11-7.82.64-7.57-6.57a1.43,1.43,0,0,0-.82-1.55c-1.89,1-3.18,3-4.88,4.44-.89.77-1.75,2.07-3.09,1.29a7.46,7.46,0,0,1-3.73-4.08c-.27-.94.7-1.7,1.36-2.37,2.85-2.88,5.61-5.87,8.62-8.57,2.67-2.4,2.93-5.16,2.31-8.32-1.39-.06-1.84.91-2.48,1.53-2.32,2.26-4.56,4.61-6.9,6.85s-3.08,2.23-5.33,0-2.22-2.73-.05-4.95q6.24-6.36,12.6-12.61C116,323,117,321.63,117,319.51c-.06-7,0-14.05,0-21.07,0-2.69-.53-3-2.8-1.74-6.12,3.44-12.15,7-18.26,10.5-1.74,1-2.2,2.62-2.66,4.32-1.54,5.74-3,11.48-4.65,17.2-.35,1.24-.28,3.1-1.88,3.29a7.26,7.26,0,0,1-5.3-1.6c-1-.78-.48-2-.21-3.05.9-3.53,1.84-7.05,2.76-10.58a2.2,2.2,0,0,0-.06-2.15,6.53,6.53,0,0,0-5.49,4.94c-1.09,4-2.09,8.11-3.28,12.12a4.37,4.37,0,0,1-7.24,2.06,2.07,2.07,0,0,1-.44-2.25c.42-1.71.94-3.39,1.33-5.1.22-1,.81-2,.09-3.21-2,.44-3.56,1.83-5.33,2.75-1.58.83-2.83.68-3.73-1-.13-.24-.28-.46-.43-.69-3.73-5.61-3.72-5.6,1.89-9,.89-.55,2-.84,2.62-2.16-2.6-.78-5.11-1.71-7.71-2.25-2.44-.51-2.63-2-2.14-3.9.72-2.69,1.56-3.6,3.81-3.11a119.47,119.47,0,0,1,12.53,3.27c3.48,1.17,5.88-.2,8.63-2.49-4.37-1.72-8.6-2.49-12.71-3.66C63,300,62.62,299.26,63.64,296c.83-2.65,1.35-3,4.12-2.29,5.75,1.47,11.51,2.92,17.21,4.58a8.52,8.52,0,0,0,7.3-.93c6.24-3.75,12.59-7.32,18.76-10.89.26-1.37-.7-1.56-1.35-1.94-6.07-3.53-12.17-7-18.2-10.6a6.72,6.72,0,0,0-5.76-.67C79.89,274.94,74,276.44,68.13,278c-1.24.32-2.78,1.13-3.68-.36a7.55,7.55,0,0,1-1.28-5c.17-1.13,1.28-1.23,2.2-1.47L77.09,268a2,2,0,0,0,1.5-.95c-2.4-2.24-4.83-3.64-8.46-2.34a110.46,110.46,0,0,1-11.71,3.18c-3,.72-3.41.37-4.21-2.62s-.5-3.49,2.41-4.44c2.26-.74,4.58-1.32,7.3-2.09-1.83-2-3.85-2.76-5.62-3.86-1.51-.94-2-2-1.06-3.67,4-7.08,3.66-7,9.76-3.29a3.62,3.62,0,0,0,2.52.69c-.66-2.59-1.35-5-1.89-7.49-.59-2.7-.28-3.07,2.64-3.88,3.21-.89,3.82-.72,4.62,2,1.26,4.27,2.37,8.59,3.48,12.91.75,2.94,2.67,4.38,5.75,5,.18-2.08-.53-3.7-1-5.35-.57-2.23-1.26-4.42-1.8-6.65-.89-3.66-.57-4.12,3.11-5,2.75-.62,3.19-.45,4,2.44,1.61,5.72,3.11,11.47,4.58,17.22.55,2.18,1.37,4,3.49,5.15,5.78,3.22,11.45,6.63,17.21,9.88,2.53,1.43,3.15,1.12,3.18-1.66.09-6.89,0-13.78,0-20.67a6.11,6.11,0,0,0-2.1-4.63c-2.8-2.74-5.54-5.53-8.31-8.31-1.53-1.53-3.09-3-4.58-4.59a4.12,4.12,0,0,1,2.09-7c1.26-.3,2,.55,2.79,1.29,2.13,2.07,4.19,4.21,6.33,6.27,1,.9,1.65,2.15,3.38,2.52.83-3.07.62-5.68-1.91-8-2.89-2.64-5.59-5.49-8.33-8.29-2.5-2.55-2.51-3-.32-5.23,2.35-2.35,3-2.32,5.63.17,1.54,1.43,2.81,3.18,4.89,4.43.68-1.85.36-3.47.45-5,.19-3.33.59-3.87,3.76-3.92,6.62-.09,7.19-.45,7,6.33a2.65,2.65,0,0,0,.81,2.57c1.67-1.61,3.33-3.3,5.08-4.89,2.16-2,2.76-1.9,5,.33s2.44,2.93.46,5c-3,3.13-6,6.22-9.16,9.18a6.57,6.57,0,0,0-1.89,7.21c1.35.17,1.83-.8,2.47-1.42,2.23-2.16,4.39-4.4,6.62-6.56,2.74-2.67,5.65-2,7.16,1.5.64,1.49-.39,2.3-1.2,3.13-3.69,3.76-7.26,7.67-11.21,11.14a11.83,11.83,0,0,0-4.28,10.29c.33,6.58.09,13.2.09,19.71,1.71.67,2.62-.39,3.59-.94,5.64-3.19,11.2-6.53,16.87-9.67a7.3,7.3,0,0,0,3.6-5.08c1.43-5.62,2.94-11.23,4.48-16.82,1-3.59,4.12-4.46,7-2,1,.87.81,1.91.52,3-.79,3-1.67,6-2.39,9-.3,1.25-1.05,2.5-.4,4.08,3-.84,5-2.19,5.7-5.51.87-4.22,2.21-8.34,3.38-12.5.33-1.18.73-2.59,2.29-2.34s3.62.18,4.81,1.73c.72.95.18,2.1,0,3.14-.45,2.34-1.6,4.55-1.65,7.19,2.26-.61,3.85-1.88,5.59-2.85s3-.6,4.15,1c4.1,5.39,3.95,6.31-1.85,9.74-.77.45-1.78.67-2.07,1.89,2.15,1.12,4.55,1.44,6.84,2.09,3.08.88,3.38,1.36,2.66,4.21-.82,3.18-1.51,3.67-4.45,2.93a98.91,98.91,0,0,1-10.94-2.91c-3.65-1.38-6.51-.73-9.31,2.2,2.92,1.57,6.16,1.76,9.12,2.8,1.27.44,2.61.68,3.89,1.1,2.76.88,2.9,1.18,2.25,4.09-.69,3.14-1.37,3.66-4.46,2.89-6.14-1.55-12.28-3.17-18.38-4.89a5.5,5.5,0,0,0-4.62.53q-9.63,5.59-19.29,11.15a1.66,1.66,0,0,0-1,1.54c6.85,3.93,13.83,8,20.85,12,1.64.93,3.4.51,5.13.06,5.73-1.52,11.46-3.07,17.22-4.51,3.26-.82,5.6,1.68,4.82,5-.31,1.28-1.39,1.6-2.4,1.89-3.25.93-6.51,1.76-9.76,2.66-1.14.31-2.25.7-3.69,1.16,3,2.56,5.73,3.78,9.42,2.41A101.84,101.84,0,0,1,185.8,304c3.42-.85,5.8,1.37,5.36,4.86-.15,1.15-.9,1.57-1.87,1.83-1.95.52-3.9,1.08-5.86,1.57a2.9,2.9,0,0,0-2.1,1.32c1.51,1.46,3.46,2.12,5.09,3.23,2.25,1.53,2.35,1.74,1,4.24-3.36,6.14-3.14,7-9.08,3.1a2.08,2.08,0,0,0-2.47-.29c-.17,2.22.94,4.3,1.36,6.5.58,3,.45,3.26-2.28,4.07-3.14.93-4,.65-4.91-2.25-1.19-3.87-2.22-7.79-3.13-11.73C166.14,317.21,164.25,315.31,160.31,314.4Z"/></g></svg>