<svg id="Camada_1" data-name="Camada 1" xmlns="http://www.w3.org/2000/svg" viewBox="0 0 512 512"><defs><style>.cls-1{fill:#010101;}</style></defs><path id="caminhao" class="cls-1" d="M511.53,263.53l-38-123.6a31.82,31.82,0,0,0-30.58-22.6H352v-32a10.67,10.67,0,0,0-10.67-10.66H10.67A10.67,10.67,0,0,0,0,85.33V384a10.67,10.67,0,0,0,10.67,10.67H43.74a53.34,53.34,0,0,0,104.52,0h12.81a53.34,53.34,0,0,0,104.52,0h98.15a53.34,53.34,0,0,0,104.52,0h33.07A10.67,10.67,0,0,0,512,384V266.67A10.71,10.71,0,0,0,511.53,263.53ZM485,250l-69-23V181.33h47.91ZM21.33,96H330.67V309.33H21.33ZM96,416a32,32,0,1,1,32-32A32,32,0,0,1,96,416Zm117.33,0a32,32,0,1,1,32-32A32,32,0,0,1,213.33,416Zm0-85.33a53.43,53.43,0,0,0-52.26,42.66H148.26a53.34,53.34,0,0,0-104.52,0H21.33V330.67H330.67v42.66H265.59A53.41,53.41,0,0,0,213.33,330.67ZM416,416a32,32,0,1,1,32-32A32,32,0,0,1,416,416Zm52.26-42.67a53.34,53.34,0,0,0-104.52,0H352V138.67h90.91a10.6,10.6,0,0,1,10.19,7.53l4.25,13.8h-52a10.66,10.66,0,0,0-10.66,10.67v64A10.67,10.67,0,0,0,402,244.79l88.71,29.56v24.32h-32V320h32v53.33Z"/></svg>