<svg id="Camada_1" data-name="Camada 1" xmlns="http://www.w3.org/2000/svg" viewBox="0 0 512 512"><defs><style>.cls-1{fill:#010101;}</style></defs><path id="Moto" class="cls-1" d="M426.67,266.34A85.16,85.16,0,0,0,402,270l-15.27-34.31A122.19,122.19,0,0,1,424.86,229a21.3,21.3,0,0,0,20.5-25.58C426.83,113.5,327.85,76.52,323.65,75l-7.31,20a222.6,222.6,0,0,1,54.45,31.81,200,200,0,0,1-26,18.82l-15.88-23.89a10.59,10.59,0,0,0-6.79-4.55h0l-53.33-10.67-4.18,20.92,49,9.8,10.67,16.06c-4.38,1-8.7,1.76-12.75,2.49-3,.53-5.8,1-8.37,1.58-15.95,3.38-28.83,10.66-41.28,17.7-6,3.39-12.22,6.9-18.68,9.9-20.44,9.51-48.54,8.37-79.13-3.2C127.82,166,60,154.73,20.66,188.07a15.76,15.76,0,0,0-5.5,11.34,16.2,16.2,0,0,0,4.71,12.08l19,19a26.74,26.74,0,0,0,22,7.62c46.42-1.65,80.27,11.23,101.29,38.4l-17.49,14a85.08,85.08,0,1,0,13.36,16.64l15.36-12.29q9,18.72,12.4,43.56c3.53,25.81,26.35,45.27,53.08,45.27h74.64a13.28,13.28,0,0,0,13.1-15.48,102.67,102.67,0,0,1-1.34-16.52A101.52,101.52,0,0,1,376,263.93l6.56,14.75a85.3,85.3,0,1,0,44.16-12.34ZM149.33,351.68A64.09,64.09,0,1,1,127.91,304l-17,13.63a42.67,42.67,0,1,0,13.35,16.64l17-13.62A63.57,63.57,0,0,1,149.33,351.68Zm-42.66,0a21.41,21.41,0,1,1-13.59-19.86L78.67,343.35A10.67,10.67,0,0,0,92,360l14.4-11.53A21.15,21.15,0,0,1,106.67,351.68Zm197.33,0c0,3.57.15,7.13.46,10.66H238.93c-16.12,0-29.85-11.53-32-26.83-.23-1.75-.52-3.45-.8-5.17h60.49V309H201.42a149.75,149.75,0,0,0-7.91-21.33h73.16V266.34H181.33v.38h-.05c-25.12-34.63-66.57-52-121.66-49.9a11.11,11.11,0,0,0-1.16.1,5.24,5.24,0,0,1-4.5-1.5L39.25,200.7c32.61-22.22,87.87-11.78,116.47.75l.49.2c36.12,13.71,70.19,14.67,95.94,2.7,7.23-3.36,13.81-7.08,20.18-10.68,11.56-6.53,22.47-12.7,35.21-15.4,2.3-.49,4.9-1,7.69-1.45,8.58-1.53,19.24-3.44,29.64-7.3,7.49-2.78,27.59-15.42,42-28.41,17.06,17,32,39.1,37.72,66.58a142.93,142.93,0,0,0-56.43,12.39h0a10.67,10.67,0,0,0-5.41,14.08l4.54,10.19A122.85,122.85,0,0,0,304,351.68Zm122.67,64a64,64,0,0,1-35.39-117.29l8.87,19.92a43.47,43.47,0,1,0,19.49-8.67l-8.88-20a64,64,0,1,1,15.91,126Zm-17.25-76.51,7.5,16.84a10.67,10.67,0,0,0,19.49-8.67l-7.51-16.88a21.4,21.4,0,1,1-19.48,8.71Z"/></svg>