<svg id="Camada_1" data-name="Camada 1" xmlns="http://www.w3.org/2000/svg" viewBox="0 0 512 512"><g id="mecanico"><path d="M272.83,0c8.32,1.43,16.74,2.48,25,4.37,35.86,8.26,58.53,30.33,66.84,66.19,5.93,25.61,6.75,51.75,5.61,78-1,23.14-6.39,45.15-18.13,65.16-20.24,34.51-49,57.93-89.09,65.57-14.36,2.74-27.82-1.89-40.52-7.86-42.32-19.87-68.29-53.11-78.18-98.63-4-18.3-4.46-37.05-2.73-55.69,1.5-16.2,2.44-32.65,6.14-48.39,8.39-35.75,31.9-56.9,67.6-64.6C223.09,2.42,231,1.35,238.82,0Zm-114,121.34-1.54.24c.83,13.73.59,27.63,2.69,41.17,6.67,43,29.82,74.38,69.3,93.11,10.05,4.77,20.63,8.65,32.22,6.55,21.37-3.86,39.16-14.61,54.55-29.38,27.14-26,37.52-58.86,37.75-95.6,0-5.4,0-10.81,0-16.21-2.89,2.13-4.42,4.49-6.31,6.51-6.88,7.34-10.35,7.53-18.22,1.43-7.5-5.8-14.5-12.51-22.67-17.12C272.93,93,238.73,93,205.08,112c-9,5.12-16.7,12.6-25.05,18.92-4.8,3.63-8.5,3.62-12.95-.47C164.07,127.73,161.57,124.41,158.84,121.34ZM218.6,51.51c2.8,7,5.53,13.85,7.92,19.82,10.45-1.25,20-3.28,29.49-3.27s19,2.06,29.13,3.29L293,51.5A116.38,116.38,0,0,0,218.6,51.51Z"/><path d="M108.47,464.53c-2.82,2.23-5.59,4.54-8.5,6.64a3.2,3.2,0,0,1-2.63.07c-16.44-7.18-31.78-16-44.31-29.15-8-8.35-11.52-17-8.58-29.21,5.37-22.35,10.79-44.52,21.12-65.22,5.94-11.9,13.84-21.82,25.71-28.38q45.63-25.21,91.11-50.72c4.1-2.28,7.87-2.18,11.62.66a105.48,105.48,0,0,0,39.69,19.13c4.25,1,6.59,4,8.07,8.08,3.85,10.44,7.87,20.82,11.84,31.22.56,1.48,1.2,2.94,2.3,5.65,3.63-9.57,6.74-18,10-26.43,7.44-18.89,4.17-15.62,21.77-21.62,10-3.43,19.29-9.56,28.45-15.2,5-3.06,9.05-3.85,14.26-.92,29.44,16.53,58.87,33.07,88.53,49.2,15,8.17,24.12,21,30.93,36,9.69,21.36,14.87,44,18.55,67,.59,3.64-1.05,8.26-3.05,11.6-6.46,10.78-15.95,18.76-26.52,25.26-7.35,4.51-15.24,8.12-22.8,12.3-2.42,1.34-4,1.23-6-.84s-4.46-3.37-6.77-5c.09-.16.15-.52.35-.63,16.21-9.51,18.1-24.86,5-40.72-28.91-35-78.45-34.49-106.75,1a8.3,8.3,0,0,1-5.72,2.75q-40.24.27-80.49,0a9.45,9.45,0,0,1-6.43-3.29,67.33,67.33,0,0,0-110.17,5.13C91.82,440.06,92.29,456.62,108.47,464.53Z"/><path d="M374.88,483.09c6,0,12-.07,18,0,5.07.06,6.13,1.84,3.45,6-10.08,15.75-24.52,23.77-43.21,22.79-17.66-.92-30.83-9.74-39.22-25.25-1.84-3.41-3.71-4.59-7.57-4.57q-50.5.25-101,0c-3.89,0-5.81,1.2-7.61,4.58-8.54,16-22.21,24.56-40.21,25.26s-32.09-7.23-41.92-22.41c-2.89-4.46-1.86-6.36,3.44-6.39,12-.07,24-.12,36,0,3,0,4.92-.6,4.92-3.91q0-14.65,0-29.31c0-3.24-1.88-4-4.92-3.93-12,.17-24,.13-36,.1-5.43,0-6.4-1.72-3.49-6.25,10-15.61,24.38-23.51,42.83-22.57,17.8.9,31.19,9.73,39.56,25.55,1.73,3.28,3.56,4.33,7.21,4.31q50.74-.24,101.5,0c3.69,0,5.52-1.11,7.22-4.35,8.54-16.27,22.39-24.92,40.56-25.53,17.82-.6,31.81,7.18,41.51,22.24.89,1.37,1.8,3.72,1.21,4.8s-3,1.66-4.68,1.68c-11.83.14-23.67.17-35.5,0-3.14,0-5.25.52-5.24,4.14,0,9.76,0,19.53.1,29.3,0,3,1.77,3.79,4.61,3.71C362.54,483,368.71,483.09,374.88,483.09Z"/></g></svg>